<mxfile host="app.diagrams.net" modified="2021-10-06T20:32:48.727Z" agent="5.0 (Macintosh; Intel Mac OS X 10_15_7) AppleWebKit/537.36 (KHTML, like Gecko) Chrome/94.0.4606.71 Safari/537.36" etag="4IxgUU76pJgyfHQvEjoZ" version="15.4.3" type="github">
  <diagram id="2uqAs0C8XVqvxUqyv8aO" name="Page-1">
    <mxGraphModel dx="1126" dy="682" grid="1" gridSize="10" guides="1" tooltips="1" connect="1" arrows="1" fold="1" page="1" pageScale="1" pageWidth="850" pageHeight="1100" math="0" shadow="0">
      <root>
        <mxCell id="0" />
        <mxCell id="1" parent="0" />
        <mxCell id="ooCom0t9Wb2H1rmMklXi-2" value="" style="shape=image;imageAspect=0;aspect=fixed;verticalLabelPosition=bottom;verticalAlign=top;image=data:image/png,iVBORw0KGgoAAAANSUhEUgAAAMgAAADICAYAAACtWK6eAAAABHNCSVQICAgIfAhkiAAAAAlwSFlzAAALEwAACxMBAJqcGAAACaZJREFUeJzt3XusHFUdwPFveWgptSp9xGJomxgCWiMFKrSFpqRCiImKFKJiGmtUUhJfiWKMhhAbkPgHCUg04iupgIpSChpJSBRotZhWWyktKA2ItFosFozWUkulrX+cbrs7d+/MPu7OmTP7/SQnN7Nnd+d3d/e3c86ZM2dBkiRJkiRJkiRJkiRJkiRJkiRJkiRJkiRJkiRJkiRJkiRJkiRJkiRJkiRJkiRJkiRJkiRJkiRJkiSpwLjYAbQxAVgMnAO8CXhN3HA0xg4Au4BNwCPAvrjhpGMK8HXgP8Bhy1CUPcAtwCko1yXAbuK/YZY45QVCq0FtXEY47MZ+kyxxywHgvVRM7D7IW4GNhH5HsxeA1cAfgf1lB6WBGg/MBq4ApmbqXgbOBbaVHVRVrWXkN8lNhBdR9TYBuJmR7/9DMYOqkgsY+eJcGzUixfBFRn4O5kWNqCK+SeuLsjZuOIroN7R+Fm6LG84xJ0Tc98LM9q0D2Mcs4Lqm7e3ADUNUn4pbgAubtrOfjaG0l9ZvjckD2MfczD42Dll9KqbQ+n/siRvOMTGPICdntl8quP8bgYuBicDvgScGEdSQGE94LacDTwHrCB/MWLLv/cQoUbQRM0G6cRXwHVpfuB8BHwNeiRJRus4H7gXe3HTbeuBywhSQGLLJGfv0w1EpJMh5wJ3A8ZnbP0z45vlMzmO3A1c3bb84ZPVZU4EHGNmcnUc477Sg4PEqUXZobzQ/bHPfRtnPyKaaRvd58s9mz48XWsefh1IdFzuADpyZU/dawkiOOnNGn/VDJ4UEeT6n7iCws6xAaqDotXqujCBSErMz1GnH7H3Az0apuwNYlrOPWVT7PMWg67PeAjxJOPJmbQXmAIdyHj9Ile2ox9JNm/PGNvdfC0wqeFzs8xCx69v5EKHv1vy4Z4HTO3jsIFWyD5LCKBaEb8n7gfcThnofJQxVxvq2S9ndwAbC0Pl0wvmkuwgzaZWRSoJA+HZM9Uxx1fyFMGtaBVJKkF7EPg8Ru159SqGTruFQyc9DCsO8UjQmiJSj7n0Qja2pwMyS9jU3sz10AzSVHPdWrmvIn8s1yBKFTSwphwki5bAPon7sBnYM6LnPHdDzdsUEiSdvnH9cpn60+746duH0ZDWhXzIIleiXptDE6rXz9r2Cx31icCG3dTbhTHdj/4dyykHCh79R/jdKmVPqfzCEPIKU4xzgV4SFJ5SQFI4gqTM5EmaCDJbJccxxhAWrl8cOpBt1TpAVhHZ/o9xX8v5HS44VHOuEd1seLyPwAfg08DSwivBeJKPOfZC/HikN/yxx32czenJ8pcQ4qqKx1u5e4J6YgXQrhQSpxLTnLv0Sk6Odiwi/TZiMOjexYsouzGZyBG+PHUC3UjiC9Op6YEnT9mmxAsHkaFhJ+NXi70aOo2N1PoLMAM5qKv6SajzzCX2Pg1RkCkmn6nwEUXWsBz5AuJYkqdUbTRCVafuRkow6J8hKwjdXwzJaf8VIKlTnBFl3pDTMwwRRl1JIkKJpzymeJ1Ei6jyKpcFbTs2uQc9K4QjSq2W0/lqqzSt1rc4JshD4eOwglLYUE8Q+h0pjH0TduJ3ep+oXlayi+lKkeATp1ArgGzn1g1qNQzVS5wTJXg8idS3FBKnkMvkFNo/R8yQ1j6kOUkyQFJ0VOwD1xk66lMMEkXKk2MTqtM+RPZPerTWEX3/tRVkrd2wraT+KoNO5N73O0SlaerSo3N7FvtS/Ss7Fsokl5UixiaXyXAlcF2nf2aHxKAt1p5ggvb5wP6D1AqqsRcDSniKqrynEG6KuxNB4ignS6wu3jtAvGc0JmCDKGNY+yEzC74O8I3YgqrYUjyD9mglsASYRfqzmXYQhXRVbBXy1pH09VtJ+cqWYIP2eY7iEkBwQjqBLMEE69RJjN68sCSkmSL9v0O8IR45G8/LRPp9PNZZigvRrC6FZtYSQHD+NG46qbBgTBEKTak3kGJSAFBMkO1Tb6a/VLiL//+1n3pZqKsUEya5U0mmCLMXzHDGdDLwcO4huDet5EJXnUuBB4ObYgfTCBNEgPUFIjkuBVyLH0pMUmljf7vFxa4BX+9jvr/t4rILZR/6uBL4cMY4kVXL+v1pcQ3/XyDQed2IP+67E58MmlsrwIPD62EH0wgTRID1+5O9i4IaYgfTKBNEgzSHMWvgFafR3R0gy6AHrd7GHbj0H3DhKXd71K51YQfzVJR8+UiZEjiM5leiEtdHvYg/dlo05sfT73P1eptpvJ70flfh8pHQEmUyYqj6RMCN3S9xwknYScDEwHXiKcLXloagRVVQqCbKUcD6k+TD9E+CjwP4YASVsHnAvcGrTbRuAy4G/R4mowlJIkPnAHYxcMO6DwIvApwa8/6LFHro1k95XCrm6oP564LSc+mnAA8ApmdvPB1YDC6hWc3eoddrGvLvNfRvlAPC6MY4r2wfpdDJkp+Zmnr+bPkiRzeT3Qa5t85zNZUHm/vZBYu24C3lL/p8IzAK2lhNK8op+PuEM4Lc59W8jJM3QSCFBdpI/GvN8WYHUwM6C+r8V1C9kyK6bSeFE4fdz6u4jLCSgztxFaJa28yywtsRYkpBCgtwPfK3N7ZsZssP9GHiGMPKXTZJdwBVtbh96VWpijaN9Z+ww8CXC0eIyQqd8A3APvqG9+DHh9buKMNT7J8KR5V9t7vskvV9u0I1phGHmhn8Q3u+htpfWUYopccM5qs6jWFX1blrjfihuOMfEPII8Q+s6uwupx7fGNMKSQg27CSfmNLqLMtt/jhFEOzET5BFaE+Rz1CNBZgDfatrehAmS5w2MXIijMldzxuyk35nZvpDQ19DwOJ4wSjm56ba9wM/jhDNSzAT5A2HaQ7ObgFsJExJVb6cSEmFJ5vbbgD3lh9Ne7FGsTwIXEA6zDZ8FPkJobm0lJEyz7NBudvpDt/VZZxbUF9lN68jPjoL7T2Vww9VXEiYnVskk4J3Ae4DxmbptlLd6fDIWA/9l9PlBWWNdX1QGPYrVTSmSHcVKqewCTu/gfyxVFU4UPky4LLNoGoTq6zHCRMmnYweSVYUEgTBBbjaJrr6nnu0gNKnPI0x1qZzYfZBm/wa+QJiS3ayofd5vffZM8SJa+yGLGNvXaUZmezfhWox2lme25xY890mZ7VVUa67aYWAfITHWE64MjTaVPVVlt32zvCZdR1WliSVVkgki5ahSH6ShjNmjedbQ36LX3dqeU7epz+fe1+fjJUmSJEmSJEmSJEmSJEmSJEmSJEmSJEmSJEmSJEmSJEmSJEmSJEmSJEmSJEmSJEmSJEmSJEmSJEmSVOT/csj+h/9ExvoAAAAASUVORK5CYII=;" vertex="1" parent="1">
          <mxGeometry x="170" y="10" width="200" height="200" as="geometry" />
        </mxCell>
      </root>
    </mxGraphModel>
  </diagram>
</mxfile>
